# xmcd
#
# Track frame offsets:
#	150
#	18402
#	36723
#	54147
#	68820
#	81520
#	94583
#	107127
#	123177
#	139906
#	158651
#
# Disc length: 2425 seconds
#
# Revision: 1
# Processed by: cddbd v1.5.2PL0 Copyright (c) Steve Scherf et al.
# Submitted via: audiograbber 1.83.01
#
DISCID=8f09770b
DTITLE=Lou Doillon - Places
DYEAR=2012
DGENRE=Jazz
TTITLE0=I.c.u
TTITLE1=Devil Or Angel
TTITLE2=One Day After Another
TTITLE3=Defiant
TTITLE4=Same Old Game
TTITLE5=Jealousy
TTITLE6=Make A Sound
TTITLE7=Hushaby
TTITLE8=Questions And Answers
TTITLE9=Places
TTITLE10=Real Smart
EXTD=YEAR: 2012
EXTT0=
EXTT1=
EXTT2=
EXTT3=
EXTT4=
EXTT5=
EXTT6=
EXTT7=
EXTT8=
EXTT9=
EXTT10=
PLAYORDER=
